<svg width="25" height="25" viewBox="0 0 25 25" fill="none" xmlns="http://www.w3.org/2000/svg">
<g clip-path="url(#clip0_722_2893)">
<path d="M19.438 12.1411H4.43799C4.23908 12.1411 4.04831 12.2202 3.90766 12.3608C3.76701 12.5015 3.68799 12.6922 3.68799 12.8911C3.68799 13.0901 3.76701 13.2808 3.90766 13.4215C4.04831 13.5621 4.23908 13.6411 4.43799 13.6411H19.438C19.6369 13.6411 19.8277 13.5621 19.9683 13.4215C20.109 13.2808 20.188 13.0901 20.188 12.8911C20.188 12.6922 20.109 12.5015 19.9683 12.3608C19.8277 12.2202 19.6369 12.1411 19.438 12.1411Z" fill="white"/>
<path d="M19.1275 12.8911L12.907 19.1101C12.7662 19.251 12.687 19.442 12.687 19.6411C12.687 19.8403 12.7662 20.0313 12.907 20.1721C13.0478 20.313 13.2388 20.3921 13.438 20.3921C13.6372 20.3921 13.8282 20.313 13.969 20.1721L20.719 13.4221C20.7888 13.3525 20.8442 13.2697 20.8821 13.1786C20.9199 13.0875 20.9393 12.9898 20.9393 12.8911C20.9393 12.7925 20.9199 12.6948 20.8821 12.6037C20.8442 12.5126 20.7888 12.4298 20.719 12.3601L13.969 5.61014C13.8282 5.46932 13.6372 5.3902 13.438 5.3902C13.2388 5.3902 13.0478 5.46932 12.907 5.61014C12.7662 5.75097 12.687 5.94198 12.687 6.14115C12.687 6.34031 12.7662 6.53132 12.907 6.67215L19.1275 12.8911Z" fill="white"/>
</g>
<defs>
<clipPath id="clip0_722_2893">
<rect width="24" height="24" fill="white" transform="matrix(-1 0 0 1 24.688 0.891144)"/>
</clipPath>
</defs>
</svg>
