<svg width="16" height="17" viewBox="0 0 16 17" fill="none" xmlns="http://www.w3.org/2000/svg">
<path d="M8 16.1345C3.5816 16.1345 0 12.5529 0 8.13452C0 3.71612 3.5816 0.134521 8 0.134521C12.4184 0.134521 16 3.71612 16 8.13452C16 12.5529 12.4184 16.1345 8 16.1345ZM8 14.5345C9.69739 14.5345 11.3253 13.8602 12.5255 12.66C13.7257 11.4598 14.4 9.83191 14.4 8.13452C14.4 6.43714 13.7257 4.80927 12.5255 3.60904C11.3253 2.40881 9.69739 1.73452 8 1.73452C6.30261 1.73452 4.67475 2.40881 3.47452 3.60904C2.27428 4.80927 1.6 6.43714 1.6 8.13452C1.6 9.83191 2.27428 11.4598 3.47452 12.66C4.67475 13.8602 6.30261 14.5345 8 14.5345ZM8 4.13452C8.21217 4.13452 8.41566 4.21881 8.56569 4.36884C8.71571 4.51887 8.8 4.72235 8.8 4.93452V8.93452C8.8 9.1467 8.71571 9.35018 8.56569 9.50021C8.41566 9.65024 8.21217 9.73452 8 9.73452C7.78783 9.73452 7.58434 9.65024 7.43431 9.50021C7.28429 9.35018 7.2 9.1467 7.2 8.93452V4.93452C7.2 4.72235 7.28429 4.51887 7.43431 4.36884C7.58434 4.21881 7.78783 4.13452 8 4.13452ZM8 12.1345C7.78783 12.1345 7.58434 12.0502 7.43431 11.9002C7.28429 11.7502 7.2 11.5467 7.2 11.3345C7.2 11.1223 7.28429 10.9189 7.43431 10.7688C7.58434 10.6188 7.78783 10.5345 8 10.5345C8.21217 10.5345 8.41566 10.6188 8.56569 10.7688C8.71571 10.9189 8.8 11.1223 8.8 11.3345C8.8 11.5467 8.71571 11.7502 8.56569 11.9002C8.41566 12.0502 8.21217 12.1345 8 12.1345Z" fill="#EE3C3C"/>
</svg>
