<svg width="16" height="15" viewBox="0 0 16 15" fill="none" xmlns="http://www.w3.org/2000/svg">
<path d="M8.46576 7.43214C7.748 7.43214 7.04637 7.2193 6.44958 6.82054C5.85279 6.42177 5.38764 5.85499 5.11297 5.19188C4.8383 4.52876 4.76643 3.79908 4.90646 3.09512C5.04648 2.39115 5.39212 1.74452 5.89965 1.23699C6.40718 0.729463 7.05381 0.383832 7.75777 0.243805C8.46173 0.103778 9.19141 0.175645 9.85453 0.450318C10.5176 0.72499 11.0844 1.19013 11.4832 1.78692C11.882 2.38372 12.0948 3.08535 12.0948 3.80311C12.0948 4.76559 11.7124 5.68864 11.0319 6.36922C10.3513 7.0498 9.42824 7.43214 8.46576 7.43214ZM8.46576 1.62569C8.03511 1.62569 7.61412 1.75339 7.25605 1.99265C6.89797 2.23191 6.61889 2.57197 6.45409 2.96984C6.28928 3.36771 6.24616 3.80552 6.33018 4.2279C6.41419 4.65028 6.62157 5.03826 6.92609 5.34277C7.23061 5.64729 7.61859 5.85467 8.04097 5.93869C8.46334 6.0227 8.90115 5.97958 9.29902 5.81478C9.69689 5.64998 10.037 5.37089 10.2762 5.01282C10.5155 4.65474 10.6432 4.23376 10.6432 3.80311C10.6432 3.22562 10.4138 2.67178 10.0054 2.26344C9.59708 1.85509 9.04325 1.62569 8.46576 1.62569ZM15.24 14.2063C15.0482 14.2038 14.8651 14.1266 14.7295 13.991C14.5939 13.8554 14.5167 13.6722 14.5141 13.4805C14.5141 11.5934 13.4883 10.3354 8.46576 10.3354C3.44318 10.3354 2.41737 11.5934 2.41737 13.4805C2.41737 13.673 2.3409 13.8576 2.20479 13.9937C2.06867 14.1299 1.88406 14.2063 1.69157 14.2063C1.49907 14.2063 1.31446 14.1299 1.17834 13.9937C1.04223 13.8576 0.965759 13.673 0.965759 13.4805C0.965759 8.88375 6.2206 8.88375 8.46576 8.88375C10.7109 8.88375 15.9658 8.88375 15.9658 13.4805C15.9633 13.6722 15.886 13.8554 15.7504 13.991C15.6148 14.1266 15.4317 14.2038 15.24 14.2063Z" fill="white"/>
</svg>
